<svg xmlns="http://www.w3.org/2000/svg" height="512" viewBox="0 0 64 64" width="512"><path d="M61.394 25.081L48 19.341V8a1 1 0 00-.293-.707l-5-5A1 1 0 0042 2H5a3 3 0 00-3 3v54a3 3 0 003 3h40a3 3 0 003-3v-2.486l5.206-3.714A21.04 21.04 0 0062 35.708V26a1 1 0 00-.606-.919zM46 8.414V9h-5V4h.586zM45 60H5a1 1 0 01-1-1V5a1 1 0 011-1h34v6a1 1 0 001 1h6v8.341l-13.394 5.74A1 1 0 0032 26v9.708A21.04 21.04 0 0040.794 52.8L46 56.514V59a1 1 0 01-1 1zm15-24.292a19.037 19.037 0 01-7.956 15.461L47 54.771l-5.044-3.6A19.037 19.037 0 0134 35.708v-9.049l13-5.571 13 5.571z" data-original="#000000" class="active-path" data-old_color="#000000" fill="#10A0DB"/><path d="M46.628 24.071l-10 4A1 1 0 0036 29v6.31a16.919 16.919 0 006.38 13.275l3.995 3.2a1 1 0 001.25 0l3.995-3.2A16.919 16.919 0 0058 35.31V29a1 1 0 00-.628-.929l-10-4a1.007 1.007 0 00-.744 0zM56 29.677v5.633a14.924 14.924 0 01-5.629 11.712L47 49.72l-3.371-2.7A14.924 14.924 0 0138 35.31v-5.633l9-3.6zM7 20h28a1 1 0 001-1V7a1 1 0 00-1-1H7a1 1 0 00-1 1v12a1 1 0 001 1zM8 8h26v10H8zm21 36H7a1 1 0 00-1 1v12a1 1 0 001 1h22a1 1 0 001-1V45a1 1 0 00-1-1zm-1 12H8V46h20zM6 25h24v2H6zm0 6h24v2H6zm0 6h24v2H6z" data-original="#000000" class="active-path" data-old_color="#000000" fill="#10A0DB"/></svg>