<svg xmlns="http://www.w3.org/2000/svg" data-name="Layer 1" width="512" height="512"><path d="M74.275 214.324h95.934a6 6 0 000-12H74.275a6 6 0 000 12zm169.08 84.535h54.452a6 6 0 000-12h-54.452a6 6 0 100 12zm-169.08-34.143h95.934a6 6 0 000-12H74.275a6 6 0 100 12zm0 50.392h95.934a6 6 0 000-12H74.275a6 6 0 000 12zm0 50.392h95.934a6 6 0 100-12H74.275a6 6 0 100 12zm0 50.393h95.934a6 6 0 000-12H74.275a6 6 0 000 12zm169.08-67.658h54.452a6 6 0 000-12h-54.452a6 6 0 000 12zm4.803 37.377h-4.8a6 6 0 100 12h4.8a6 6 0 000-12zm-4.803-136.129h54.452a6 6 0 000-12h-54.452a6 6 0 100 12zm0-49.376h54.452a6 6 0 000-12h-54.452a6 6 0 000 12zm-169.08-36.175h95.934a6 6 0 000-12H74.275a6 6 0 000 12z" data-original="#000000" class="active-path" fill="#10A0DB"/><path d="M428.825 357.184h-18.657a7.252 7.252 0 01-7.244-7.244 5.985 5.985 0 00-.334-1.961V332.87a49.891 49.891 0 0017.478-37.931v-30.058a50.057 50.057 0 00-50-50h-.544A49.7 49.7 0 00343.845 222v-77.853a6 6 0 00-6-6H218.961V101.3a6 6 0 00-6-6H193.4V51.509a6 6 0 00-6-6h-58.64V16a6 6 0 00-12 0v29.509H57.084a6 6 0 00-6 6V95.3h-19.56a6 6 0 00-6 6v357.542a6 6 0 006 6h221.592V496a6 6 0 006 6h221.36a6 6 0 006-6v-81.165a57.716 57.716 0 00-57.651-57.651zM63.084 57.509H181.4V95.3H63.084zm143.877 395.333H37.524V107.3h169.437zm163.107-225.961a38.043 38.043 0 0138 38v30.058a38.043 38.043 0 01-38 38h-.544a38.043 38.043 0 01-38-38v-30.058a38.043 38.043 0 0138-38zm-.78 164.439h2.382l10.456 60.144-12.5 14.6-12.118-14.5zm-5.85-22.136h12.716l-3.473 10.136h-5.77zm-5.707-12l-8.631-9.694v-6.928a49.684 49.684 0 0020.42 4.377h.544a49.689 49.689 0 0020.522-4.423v8.589l-8.445 8.079zm-138.77 95.658V150.147h112.884v81.921a49.78 49.78 0 00-12.321 32.813v30.058a49.894 49.894 0 0017.58 38.019v15.6a5.959 5.959 0 00-.167 1.384 7.252 7.252 0 01-7.244 7.244h-18.926a57.716 57.716 0 00-57.651 57.651v38.007zM474.476 490h-209.36v-75.165a45.7 45.7 0 0145.651-45.651h18.926a19.212 19.212 0 0015.561-7.969l4.5 5.056 7.966 21.673-12.539 64.124a6 6 0 001.285 5l18.5 22.137a6 6 0 004.568 2.152h.036a6 6 0 004.557-2.1l18.954-22.137a6 6 0 001.353-4.93l-11.475-65.99 6.8-19.693 5.133-4.91a19.21 19.21 0 0014.669 7.574 5.5 5.5 0 00.341.01h18.926a45.7 45.7 0 0145.651 45.651z" data-original="#000000" class="active-path" fill="#10A0DB"/><path d="M442.482 412.814h-28.414a6 6 0 000 12h28.414a6 6 0 000-12z" data-original="#000000" class="active-path" fill="#10A0DB"/></svg>