<svg xmlns="http://www.w3.org/2000/svg" height="512" viewBox="-58 0 512 512" width="512"><path d="M254.926 50.84a7.497 7.497 0 00-10.606 0l-53.293 53.293a7.497 7.497 0 000 10.605 7.497 7.497 0 0010.606 0l53.293-53.293a7.497 7.497 0 000-10.605zm-51.004 5.39a7.5 7.5 0 11-15 0 7.5 7.5 0 1115 0zm53.113 53.118a7.5 7.5 0 01-7.5 7.496 7.496 7.496 0 01-7.5-7.496c0-4.145 3.356-7.5 7.5-7.5a7.5 7.5 0 017.5 7.5zm132.457 181.523c-9.262-11.969-25.426-16.246-39.305-10.715-8.25-20.836-31.421-23.304-45.527-14.797l-89.883 54.223-20-3.113c12.97-6.824 22.266-17.121 27.641-30.621 3.621-9.094 1.684-19.164-5.055-26.282-6.675-7.054-16.527-9.52-25.71-6.433-14.645 4.922-31.387 8.422-49.758 10.41-26.883 2.902-50.602 17.734-65.067 40.687L6.391 409.68a35.393 35.393 0 00-5.465 28.328 35.398 35.398 0 0017.469 22.965l83.3 45.511a44.78 44.78 0 0021.52 5.516c14.242 0 28.14-6.797 36.808-19.246l27.54-39.543c10.718-18.477 3.378-32.281 2.386-34.246 0 0 87.399-21.934 87.961-22.246l101.098-55.477c25.683-14.742 16.55-42.531 10.484-50.37zm-77.086-12.668c7.426-4.476 18.801-4.672 24.262 8.496l-61.164 30.156c-11.723 5.782-24.684 7.938-37.606 6.297zm59.387 49.887l-100.25 55.015-92.79 23.196c-1.546-1.035-73.015-33.383-73.015-33.383a7.498 7.498 0 10-6.156 13.676l68.102 30.656a18.41 18.41 0 0110.214 11.918 18.404 18.404 0 01-2.644 15.469l-27.54 39.543c-8.726 12.535-25.421 16.465-38.827 9.14l-83.301-45.51c-12.477-8.223-12.988-20.477-6.91-29.524L54.937 366.5l13.95 6.281a7.501 7.501 0 006.156-13.68l-11.742-5.285 26.215-41.59c12.011-19.054 31.687-31.363 53.992-33.769 19.445-2.102 37.25-5.84 52.922-11.105 3.632-1.223 7.386-.278 10.039 2.527 2.718 2.867 3.468 6.766 2.011 10.422-4.117 10.34-11.335 18.176-21.46 23.293-5.766 2.914-8.836 8.93-7.825 15.32a14.639 14.639 0 0012.239 12.219c8.472 1.316 37.378 5.816 42.265 6.578 16.61 2.594 33.36.031 48.438-7.402l72.261-35.63c8-3.945 17.77-1.687 23.23 5.372 3.376 4.363 9.06 19.234-5.835 28.039zm0 0" data-original="#000000" class="active-path" data-old_color="#000000" fill="#24ABE2"/><path d="M126.445 177.113l67.567 56.723a44.943 44.943 0 0028.965 10.566 44.936 44.936 0 0028.964-10.566l18.946-15.902a7.5 7.5 0 10-9.645-11.489l-18.945 15.907a30.012 30.012 0 01-38.64 0l-67.567-56.727c-3.149-2.64-2.235-6.031-1.88-7.008.356-.976 1.837-4.16 5.946-4.16h17.73c4.145 0 7.5-3.355 7.5-7.5V32.105c0-9.433 7.676-17.105 17.106-17.105h80.969c9.434 0 17.105 7.672 17.105 17.105v114.852a7.5 7.5 0 007.5 7.5h17.735c4.105 0 5.586 3.184 5.941 4.16.356.977 1.27 4.367-1.875 7.008L286.5 185.242a7.5 7.5 0 109.645 11.488l23.363-19.617c6.949-5.832 9.43-15.105 6.328-23.629-3.102-8.52-10.969-14.027-20.035-14.027h-10.235V32.105C295.566 14.402 281.164 0 263.461 0h-80.969c-17.703 0-32.105 14.402-32.105 32.105v107.352h-10.235c-9.07 0-16.933 5.508-20.035 14.027-3.101 8.524-.62 17.797 6.328 23.63zm0 0" data-original="#000000" class="active-path" data-old_color="#000000" fill="#24ABE2"/></svg>