<svg xmlns="http://www.w3.org/2000/svg" width="512" height="512"><path d="M370.931 102.051a8 8 0 00-2.895-5.788 174.894 174.894 0 00-94.463-39.394c-5.751-.572-11.6-.858-17.445-.863-.043 0-.085-.006-.128-.006s-.084.006-.127.006c-5.848 0-11.695.291-17.442.863a175.225 175.225 0 00-129.523 78.464l-.061.089a176.044 176.044 0 0011.417 208.614 8 8 0 005.787 2.9c.127.006.253.008.38.008a8 8 0 005.656-2.342L368.6 108.087a8 8 0 002.331-6.036zM230.056 224h-49.112a235.387 235.387 0 019.92-60.224A507.977 507.977 0 00248 167.928v38.128zm-133.834 0a159.08 159.08 0 0122.878-74.851 505.249 505.249 0 0055.761 12.307A251.43 251.43 0 00164.938 224zM243.007 72.531c1.659-.134 3.323-.251 4.993-.333v79.73a492.129 492.129 0 01-51.872-3.608 233.2 233.2 0 0146.879-75.789zM214.057 240l-30.149 30.148A237.173 237.173 0 01180.95 240zM264 167.929q11.5-.183 23.021-.893L264 190.056zm40.476-18.349A489.589 489.589 0 01264 151.926V72.2c1.672.082 3.338.2 5 .333a234.1 234.1 0 0143.993 68.532zM218.7 76.37a248.394 248.394 0 00-38.813 69.673 489.955 489.955 0 01-51.261-10.866A159.106 159.106 0 01218.7 76.37zm-91.533 250.52A160.316 160.316 0 0196.209 240h68.729a252.685 252.685 0 005.261 43.858zm197.995-198a249.34 249.34 0 00-31.87-52.527 158.8 158.8 0 0157.6 26.8zm77.995 6.539a176.512 176.512 0 00-11.42-15.463 8 8 0 00-11.824-.563L143.4 355.913a8 8 0 00.561 11.824 174.894 174.894 0 0094.463 39.394 179.213 179.213 0 0033.576.149V448a8 8 0 0013.878 5.426l71.747-77.726a176.04 176.04 0 0045.532-240.272zM347.729 363.1a8.048 8.048 0 00-1.286 1.125L288 427.539v-29.25a8 8 0 00-9.132-7.92c-2.422.347-4.672.621-6.881.84a162.556 162.556 0 01-31.978 0 158.85 158.85 0 01-78.9-30.372L384.834 137.11q2.584 3.5 4.953 7.108A160.04 160.04 0 01347.729 363.1z" data-original="#000000" class="active-path" data-old_color="#000000" fill="#24ABE2"/><circle cx="256" cy="312" r="16" data-original="#000000" class="active-path" data-old_color="#000000" fill="#24ABE2"/><circle cx="304" cy="312" r="16" data-original="#000000" class="active-path" data-old_color="#000000" fill="#24ABE2"/><circle cx="352" cy="312" r="16" data-original="#000000" class="active-path" data-old_color="#000000" fill="#24ABE2"/><path d="M79.992 340.062a8 8 0 00-8.93 6.946l-.676 5.4A208.021 208.021 0 0193.63 84.217 8 8 0 1082.37 72.85a224.007 224.007 0 00-25.438 288.237l-6.76-1a8 8 0 10-2.344 15.828l27 4a8 8 0 009.11-6.922l3-24a8 8 0 00-6.946-8.931zM454.534 96a8 8 0 000-16h-24a8 8 0 00-8 8v24a8 8 0 0016 0v-2.638a208 208 0 01-20.218 269.008 8 8 0 0011.368 11.26A224 224 0 00448.521 96z" data-original="#000000" class="active-path" data-old_color="#000000" fill="#24ABE2"/></svg>