<svg xmlns="http://www.w3.org/2000/svg" width="512" height="512"><path d="M389 156.21a7.994 7.994 0 0010.928-2.928l16-27.713a8 8 0 10-13.856-8l-16 27.713A8 8 0 00389 156.21zm-14.644-54.645a8 8 0 1013.852 8.008l8.012-13.858a8 8 0 00-13.852-8.008zm42.352 70.645a7.994 7.994 0 0010.928-2.928l8-13.856a8 8 0 00-13.856-8l-8 13.856a8 8 0 002.928 10.928zm-47.426-45.856a8 8 0 102.928 10.928 8 8 0 00-2.928-10.928z" data-original="#000000" class="active-path" data-old_color="#000000" fill="#24ABE2"/><circle cx="444.708" cy="123.713" r="8" transform="rotate(-68.16 444.71 123.712)" data-original="#000000" class="active-path" data-old_color="#000000" fill="#24ABE2"/><path d="M200 80a8 8 0 008-8l.01-16a8 8 0 00-8-8.005 8 8 0 00-8 8L192 72a8 8 0 008 8z" data-original="#000000" class="active-path" data-old_color="#000000" fill="#24ABE2"/><circle cx="264" cy="56" r="8" data-original="#000000" class="active-path" data-old_color="#000000" fill="#24ABE2"/><path d="M24 496h304a40.045 40.045 0 0040-40V336.573L495.349 116a8 8 0 00-2.928-10.928L340 17.072A8 8 0 00329.072 20L304 63.426V24a8 8 0 00-8-8H120a8 8 0 00-8 8v72H24a8 8 0 00-8 8v384a8 8 0 008 8zm312-232l27.923-48.363 13.856 8L336 296zm0 64l59.636-103.291a8 8 0 00-2.928-10.929l-27.713-16a8 8 0 00-10.928 2.929L336 232v-32l4.21-7.291A7.966 7.966 0 00336 181.19v-18.626l85.492 49.359L336 360zm16 128a24.027 24.027 0 01-24 24h-.022A39.788 39.788 0 00336 456v-64l16-27.713zm77.492-257.934L336 144.089V136l44.5-77.072 97 56zM338.928 34.928l27.713 16-36.813 63.764a40.082 40.082 0 00-26.55-18.017zM288 91.139L285.193 96H272v-8a8 8 0 00-16 0v8h-16V72a8 8 0 00-16 0v24h-48V32h112zM128 32h32v64h-32zm-96 80h264a24.027 24.027 0 0124 24v320a24.027 24.027 0 01-24 24H32z" data-original="#000000" class="active-path" data-old_color="#000000" fill="#24ABE2"/><path d="M232 400H120a8 8 0 000 16h112a8 8 0 000-16zm24-256H96a8 8 0 000 16h160a8 8 0 000-16zm-80 48a88 88 0 1088 88 88.1 88.1 0 00-88-88zm8 63.794a154.238 154.238 0 0026.422-3.486A71.611 71.611 0 01215.536 272H184zm0-16.016v-19.63a72.5 72.5 0 0118.149 17.5 141.864 141.864 0 01-18.149 2.13zm-16-19.63v19.63a141.864 141.864 0 01-18.149-2.131A72.5 72.5 0 01168 220.148zm0 35.646V272h-31.536a71.611 71.611 0 015.114-19.692A154.238 154.238 0 00168 255.794zM120.371 272h-15.916a71.5 71.5 0 0110-29.338 96.738 96.738 0 0011.7 5.146A87.426 87.426 0 00120.371 272zm0 16a87.426 87.426 0 005.784 24.192 96.738 96.738 0 00-11.7 5.146 71.5 71.5 0 01-10-29.338zm16.093 0H168v16.206a154.238 154.238 0 00-26.422 3.486A71.611 71.611 0 01136.464 288zM168 320.222v19.63a72.5 72.5 0 01-18.149-17.5 141.864 141.864 0 0118.149-2.13zm16 19.63v-19.63a141.864 141.864 0 0118.149 2.131A72.5 72.5 0 01184 339.852zm0-35.646V288h31.536a71.611 71.611 0 01-5.114 19.692A154.238 154.238 0 00184 304.206zM231.629 288h15.916a71.5 71.5 0 01-10 29.338 96.738 96.738 0 00-11.7-5.146A87.426 87.426 0 00231.629 288zm0-16a87.426 87.426 0 00-5.784-24.192 96.738 96.738 0 0011.7-5.146 71.5 71.5 0 0110 29.338zm-4.112-42.228a86.048 86.048 0 01-8.946 3.615 88.844 88.844 0 00-18.7-21.3 72.148 72.148 0 0127.646 17.685zm-75.389-17.687a88.844 88.844 0 00-18.7 21.3 86.048 86.048 0 01-8.946-3.615 72.148 72.148 0 0127.646-17.685zm-27.645 118.143a86.048 86.048 0 018.946-3.615 88.844 88.844 0 0018.7 21.3 72.148 72.148 0 01-27.646-17.685zm75.389 17.687a88.844 88.844 0 0018.7-21.3 86.048 86.048 0 018.946 3.615 72.148 72.148 0 01-27.646 17.685zM192 432h-32a8 8 0 000 16h32a8 8 0 000-16z" data-original="#000000" class="active-path" data-old_color="#000000" fill="#24ABE2"/></svg>