<svg height="512" width="512" xmlns="http://www.w3.org/2000/svg"><circle cx="256" cy="256" fill="#d80027" r="240"/><path d="M208.538 344V168l145.924 88z" fill="#e0e0e2"/><path d="M431.36 80.64A248 248 0 1080.64 431.36 248 248 0 10431.36 80.64zm-11.31 339.41a232 232 0 01-328.1-328.1 232 232 0 01328.1 328.1z"/><path d="M176 464.7a7.982 7.982 0 01-2.963-.571A224.077 224.077 0 0132 256a8 8 0 0116 0 208.073 208.073 0 00130.965 193.271A8 8 0 01176 464.7zm40.009 11.605a8.072 8.072 0 01-1.482-.138 223.346 223.346 0 01-16.595-3.77 8 8 0 114.136-15.455 208.124 208.124 0 0015.405 3.5 8 8 0 01-1.464 15.865zM208.538 352a8 8 0 01-8-8V168a8 8 0 0112.131-6.851l145.924 88a8 8 0 010 13.7l-145.924 88a8 8 0 01-4.131 1.151zm8-169.833v147.666L338.971 256z"/></svg>