<svg width="512" height="512" fill="#24abe2" xmlns="http://www.w3.org/2000/svg"><path d="M352 156c0-52.934-43.066-96-96-96s-96 43.066-96 96 43.066 96 96 96 96-43.066 96-96zm-162 0c0-36.395 29.605-66 66-66s66 29.605 66 66-29.605 66-66 66-66-29.605-66-66zm0 0" data-original="#000000" class="active-path" data-old_color="#000000" fill="#24ABE2"/><path d="M0 512h512L410 347h-88.684l67.235-108.754C403.89 213.566 412 185.13 412 156 412 69.98 342.02 0 256 0S100 69.98 100 156c0 29.113 8.102 57.543 23.43 82.215L190.684 347h-88.68zm148.93-289.594C136.547 202.484 130 179.523 130 156c0-69.477 56.523-126 126-126s126 56.523 126 126c0 23.523-6.547 46.488-18.95 66.438L256 395.605 148.93 222.406zM209.23 377L256 452.656 302.773 377h90.5l64.91 105H53.817l64.91-105zm0 0" data-original="#000000" class="active-path" data-old_color="#000000" fill="#24ABE2"/></svg>