<?xml version="1.0"?>
<svg width="30px" height="30px" fill="#24abe2" xmlns="http://www.w3.org/2000/svg" height="512px" viewBox="0 0 512 512" width="512px" class=""><g><path d="m352 156c0-52.933594-43.066406-96-96-96s-96 43.066406-96 96 43.066406 96 96 96 96-43.066406 96-96zm-162 0c0-36.394531 29.605469-66 66-66s66 29.605469 66 66-29.605469 66-66 66-66-29.605469-66-66zm0 0" data-original="#000000" class="active-path" data-old_color="#000000" fill="#24ABE2"/><path d="m0 512h512l-102-165h-88.683594l67.234375-108.753906c15.339844-24.679688 23.449219-53.117188 23.449219-82.246094 0-86.019531-69.980469-156-156-156s-156 69.980469-156 156c0 29.113281 8.101562 57.542969 23.429688 82.214844l67.253906 108.785156h-88.679688zm148.929688-289.59375c-12.382813-19.921875-18.929688-42.882812-18.929688-66.40625 0-69.476562 56.523438-126 126-126s126 56.523438 126 126c0 23.523438-6.546875 46.488281-18.949219 66.4375l-107.050781 173.167969s-107.050781-173.167969-107.070312-173.199219zm60.300781 154.59375 46.769531 75.65625 46.773438-75.65625h90.5l64.910156 105h-404.367188l64.910156-105zm0 0" data-original="#000000" class="active-path" data-old_color="#000000" fill="#24ABE2"/></g> </svg>
